<?xml version="1.0" standalone="no"?>
<!DOCTYPE svg PUBLIC "-//W3C//DTD SVG 20010904//EN"
 "http://www.w3.org/TR/2001/REC-SVG-20010904/DTD/svg10.dtd">
<svg version="1.0" xmlns="http://www.w3.org/2000/svg"
 width="159.000000pt" height="38.000000pt" viewBox="0 0 159.000000 38.000000"
 preserveAspectRatio="xMidYMid meet">

<g transform="translate(0.000000,38.000000) scale(0.100000,-0.100000)"
fill="#000000" stroke="none">
<path d="M137 345 c-102 -36 -144 -140 -98 -241 28 -61 72 -88 151 -92 55 -3
70 0 99 20 69 47 97 114 79 190 -12 57 -67 113 -124 127 -53 14 -60 13 -107
-4z m122 -81 c57 -47 50 -137 -13 -175 -45 -27 -73 -24 -112 15 -27 27 -34 42
-34 73 1 96 90 145 159 87z"/>
<path d="M474 350 c-47 -15 -69 -45 -69 -95 0 -56 23 -81 94 -101 63 -18 86
-35 78 -58 -11 -29 -53 -30 -102 -3 l-45 25 -20 -25 c-11 -14 -17 -29 -14 -34
14 -24 86 -49 138 -49 47 0 61 4 88 29 27 24 33 36 33 71 0 53 -32 83 -111
106 -58 17 -74 34 -54 59 16 20 53 19 92 -1 30 -16 32 -15 49 7 25 32 24 33
-16 52 -46 22 -102 28 -141 17z"/>
<path d="M796 345 c-81 -29 -122 -96 -114 -187 5 -52 27 -89 72 -122 22 -17
42 -21 101 -21 79 0 108 13 149 68 24 33 33 125 16 167 -17 41 -71 87 -117 99
-48 14 -59 13 -107 -4z m117 -76 c63 -49 54 -152 -16 -185 -71 -34 -137 14
-137 98 0 41 5 54 29 79 36 35 86 39 124 8z"/>
<path d="M1070 180 l0 -170 40 0 40 0 1 103 0 102 45 -87 c36 -72 48 -88 67
-88 18 0 31 16 67 87 l45 88 3 -103 3 -102 34 0 35 0 0 170 0 170 -50 0 -50 0
-44 -92 -44 -93 -43 93 -44 92 -52 0 -53 0 0 -170z"/>
<path d="M1512 81 c-8 -5 -12 -21 -10 -37 3 -26 7 -29 38 -29 29 0 36 4 38 23
6 41 -31 65 -66 43z"/>
</g>
</svg>
